<?xml version="1.0" standalone="no"?><!DOCTYPE svg PUBLIC "-//W3C//DTD SVG 1.1//EN" "http://www.w3.org/Graphics/SVG/1.1/DTD/svg11.dtd"><svg t="1719131621198" class="icon" viewBox="0 0 1024 1024" version="1.1" xmlns="http://www.w3.org/2000/svg" p-id="25322" xmlns:xlink="http://www.w3.org/1999/xlink" width="288" height="288"><path d="M688 96a96 96 0 0 1 95.936 92.4L784 192v224a32 32 0 0 1-63.92 2.4L720 416V192a32 32 0 0 0-29.6-31.92L688 160H224a32 32 0 0 0-31.92 29.6L192 192v640a32 32 0 0 0 29.6 31.92L224 864h224a32 32 0 0 1 2.4 63.92L448 928H224a96 96 0 0 1-95.936-92.4L128 832V192a96 96 0 0 1 92.4-95.936L224 96h464z m64 416a112 112 0 0 1 111.936 108.16L864 624v16a96 96 0 0 1 95.936 92.4L960 736v96a96 96 0 0 1-92.4 95.936L864 928H640a96 96 0 0 1-95.936-92.4L544 832v-96a96 96 0 0 1 92.4-95.936L640 640v-16a112 112 0 0 1 112-112z m112 192H640a32 32 0 0 0-31.92 29.6L608 736v96a32 32 0 0 0 29.6 31.92L640 864h224a32 32 0 0 0 31.92-29.6L896 832v-96a32 32 0 0 0-32-32z m-112-128a48 48 0 0 0-47.92 45.184L704 624h96a48 48 0 0 0-42.4-47.68l-2.784-0.24L752 576z m-336-32a32 32 0 0 1 2.4 63.92L416 608h-128a32 32 0 0 1-2.4-63.92L288 544h128z m0-128a32 32 0 0 1 2.4 63.92L416 480h-128a32 32 0 0 1-2.4-63.92L288 416h128z m176-128a32 32 0 0 1 2.4 63.92L592 352H288a32 32 0 0 1-2.4-63.92L288 288h304z" fill="#000000" p-id="25323"></path></svg>