<?xml version="1.0" standalone="no"?><!DOCTYPE svg PUBLIC "-//W3C//DTD SVG 1.1//EN" "http://www.w3.org/Graphics/SVG/1.1/DTD/svg11.dtd"><svg t="1719113969593" class="icon" viewBox="0 0 1024 1024" version="1.1" xmlns="http://www.w3.org/2000/svg" p-id="18099" xmlns:xlink="http://www.w3.org/1999/xlink" width="288" height="288"><path d="M509.184 513.1264m-450.816 0a450.816 450.816 0 1 0 901.632 0 450.816 450.816 0 1 0-901.632 0Z" fill="#FFF1DC" p-id="18100"></path><path d="M588.2368 253.5424a50.32448 50.32448 0 0 0-49.2032-2.3552L326.3488 356.608H240.2304c-27.904 0-50.6368 22.7328-50.6368 50.6368v200.0896c0 27.904 22.7328 50.6368 50.6368 50.6368h86.2208l212.9408 103.5264c7.0656 3.4304 14.6432 5.12 22.1696 5.12 9.3184 0 18.5856-2.6112 26.8288-7.7312a50.2784 50.2784 0 0 0 23.7568-42.9056V296.5504c0-17.6128-8.9088-33.6896-23.9104-43.008z m-222.0544 318.6688a33.28 33.28 0 1 1-66.56 0V444.928a33.28 33.28 0 1 1 66.56 0v127.2832zM669.44 370.432c-11.264 0-22.2208-5.6832-28.4672-16.0256-9.5232-15.7184-4.5568-36.1984 11.1616-45.7216l68.4032-41.5744c15.7184-9.5232 36.1984-4.5568 45.7216 11.1616 9.5232 15.7184 4.5568 36.1984-11.1616 45.7216l-68.4032 41.5744c-5.376 3.2768-11.3664 4.864-17.2544 4.864zM773.632 539.392h-77.9264a33.28 33.28 0 1 1 0-66.56h77.9264a33.28 33.28 0 1 1 0 66.56zM737.792 752.2304a32.8192 32.8192 0 0 1-16.9984-4.7104l-68.4032-40.704c-15.8208-9.3696-20.992-29.7984-11.5712-45.6192a33.28 33.28 0 0 1 45.6192-11.5712l68.4032 40.704c15.8208 9.3696 20.992 29.7984 11.5712 45.6192a33.1264 33.1264 0 0 1-28.6208 16.2816z" fill="#FF8E12" p-id="18101"></path><path d="M612.1472 596.5312V296.5504c0-17.664-8.96-33.7408-23.9616-43.008a50.32448 50.32448 0 0 0-49.2032-2.3552L326.3488 356.608H240.2304c-27.904 0-50.6368 22.7328-50.6368 50.6368v200.0896c0 27.904 22.7328 50.6368 50.6368 50.6368h86.2208l130.9184 63.6416a349.40928 349.40928 0 0 0 154.7776-125.0816z m-245.9648-24.32a33.28 33.28 0 1 1-66.56 0V444.928a33.28 33.28 0 1 1 66.56 0v127.2832zM660.224 303.7696l-8.0896 4.9152c-15.7184 9.5232-20.6848 30.0032-11.1616 45.7216a33.32608 33.32608 0 0 0 28.4672 16.0256c0.9216 0 1.8432-0.1024 2.816-0.2048-1.8944-22.8352-5.9392-45.056-12.032-66.4576z" fill="#FCA315" p-id="18102"></path><path d="M578.1504 275.2c0-9.0624-0.4608-17.9712-1.1264-26.8288a50.5856 50.5856 0 0 0-37.9904 2.816L326.3488 356.608H240.2304c-27.904 0-50.6368 22.7328-50.6368 50.6368v200.0896c0 5.0688 0.768 9.9328 2.1504 14.5408 12.3904 1.3312 24.9856 2.048 37.7344 2.048 192.5632-0.0512 348.672-156.16 348.672-348.7232zM299.6224 444.928a33.28 33.28 0 1 1 66.56 0v127.2832a33.28 33.28 0 1 1-66.56 0V444.928z" fill="#FCB138" p-id="18103"></path><path d="M299.6224 462.6944V444.928a33.28 33.28 0 0 1 33.28-33.28c10.5984 0 20.0704 5.0176 26.1632 12.7488 44.6464-35.6352 80.384-81.9712 103.2192-135.168L326.3488 356.608H240.2304c-27.904 0-50.6368 22.7328-50.6368 50.6368V497.152a346.4704 346.4704 0 0 0 110.0288-34.4576z" fill="#FFC65E" p-id="18104"></path></svg>